<svg width="120" height="125" viewBox="0 0 120 125" fill="none" xmlns="http://www.w3.org/2000/svg">
<g filter="url(#filter0_d_1079_5158)">
<path fill-rule="evenodd" clip-rule="evenodd" d="M76.8637 33.9466C76.8637 32.3193 75.574 31 73.983 31C67.6133 32.5708 62.8121 33.3562 59.5797 33.3562C56.8067 33.3562 52.7843 32.7549 47.5122 31.5522L45.1763 31C43.5853 31 42.2956 32.3193 42.2956 33.9466C42.969 37.7531 43.3057 40.6079 43.3055 42.5111C43.3055 43.7364 43.1657 45.4321 42.8864 47.5984C42.8469 47.9047 42.7605 48.2028 42.6305 48.4817C41.9455 49.9506 40.2261 50.5733 38.7901 49.8726L37.1104 49.0654C32.409 46.8439 29.3363 45.7331 27.8922 45.7331C25.0115 45.7331 25.0115 57.5197 30.7729 57.5197C36.5565 58.4908 54.1266 61.0194 59.5797 61.0194C64.9485 61.0194 82.5934 58.4889 88.3864 57.5197C94.1478 57.5197 94.1478 45.7331 91.2671 45.7331C89.9868 45.7331 87.426 46.6062 83.5847 48.3524L81.9799 49.0975L80.3388 49.8866C80.0683 50.0187 79.7792 50.1067 79.4821 50.1476C77.9053 50.3644 76.4552 49.2327 76.2433 47.6198L76.1358 46.7605C75.9373 45.0851 75.8382 43.6686 75.8382 42.5111C75.8384 40.3638 76.1802 37.5089 76.8637 33.9466Z" fill="#6A6C71"/>
<path d="M47.5122 31.5522C52.7843 32.7549 56.8067 33.3562 59.5797 33.3562C62.0429 33.3562 65.4169 32.9002 69.7019 31.9881L40.7816 59.0246C36.6417 58.4477 32.9058 57.8778 30.7729 57.5197C25.0115 57.5197 25.0115 45.7331 27.8922 45.7331C29.3363 45.7331 32.409 46.8439 37.1104 49.0654L38.7901 49.8726C40.2261 50.5733 41.9455 49.9506 42.6305 48.4817C42.7605 48.2028 42.8469 47.9047 42.8864 47.5984C43.1657 45.4321 43.3055 43.7364 43.3055 42.5111C43.3057 40.6079 42.969 37.7531 42.2956 33.9466C42.2956 32.3193 43.5853 31 45.1763 31L47.5122 31.5522Z" fill="#C4C4C4" fill-opacity="0.3"/>
<path d="M81.9725 67.1144C86.2383 68.1995 86.7187 69.2845 87.9523 72.0709C88.0219 72.2281 88.094 72.3908 88.1692 72.5592C88.3835 73.0386 88.5703 73.6203 88.7233 74.2727L89.7275 74.2749C90.5786 74.2768 91.2675 74.983 91.2675 75.8536C91.2675 76.6356 90.7097 77.2844 89.9789 77.4063L89.7275 77.4269L89.1545 77.4262C89.3321 80.6957 88.7766 84.4011 87.0425 86.3125C83.6626 90.0378 77.7477 89.7512 72.6776 86.3125C67.6076 82.8738 64.2275 78.2887 64.2275 78.2887L64.1196 77.7079C64.0073 77.0135 63.8943 76.0167 63.8943 75.0614C63.8943 73.7876 61.4467 72.5592 59.58 72.5592C57.7134 72.5592 55.7238 73.7876 55.7238 75.0614C55.7238 75.9865 55.5513 76.6541 55.359 77.3977C55.2866 77.6779 55.2114 77.969 55.1415 78.2887C52.2622 81.77 49.4455 84.4446 46.6914 86.3125C41.6215 89.7512 35.7065 90.0378 32.3265 86.3125C30.5924 84.4011 30.037 80.6957 30.2146 77.4262L29.4326 77.4271C28.668 77.428 28.033 76.8581 27.913 76.1106L27.8926 75.8536C27.8926 74.9831 28.5816 74.2769 29.4326 74.2752L30.6458 74.2727C30.7987 73.6203 30.9855 73.0386 31.1999 72.5592L31.7267 71.3764L32.0661 70.6618C32.967 68.8743 33.9368 67.9944 37.3965 67.1144C41.9032 65.9682 49.5081 66.2547 53.4516 67.1144C54.3958 67.3203 55.2126 68.5439 55.9019 70.7852C57.1001 69.9832 58.3262 69.5822 59.58 69.5822C60.8339 69.5822 62.1032 69.9832 63.3878 70.7852C64.0111 68.5698 64.8544 67.3462 65.9175 67.1144C69.8608 66.2547 77.4659 65.9682 81.9725 67.1144Z" fill="#6A6C71"/>
<path d="M37.3965 67.1144C41.9032 65.9682 49.5081 66.2547 53.4516 67.1144L32.3265 86.3125C30.5924 84.4011 30.037 80.6957 30.2146 77.4262L29.4326 77.4271C28.668 77.428 28.033 76.8581 27.913 76.1106L27.8926 75.8536C27.8926 74.9831 28.5816 74.2769 29.4326 74.2752L30.6458 74.2727C30.7987 73.6203 30.9855 73.0386 31.1999 72.5592L31.7267 71.3764L32.0661 70.6618C32.967 68.8743 33.9368 67.9944 37.3965 67.1144Z" fill="#C4C4C4" fill-opacity="0.3"/>
</g>
<defs>
<filter id="filter0_d_1079_5158" x="2" y="19" width="115.159" height="106" filterUnits="userSpaceOnUse" color-interpolation-filters="sRGB">
<feFlood flood-opacity="0" result="BackgroundImageFix"/>
<feColorMatrix in="SourceAlpha" type="matrix" values="0 0 0 0 0 0 0 0 0 0 0 0 0 0 0 0 0 0 127 0" result="hardAlpha"/>
<feOffset dy="12"/>
<feGaussianBlur stdDeviation="12"/>
<feColorMatrix type="matrix" values="0 0 0 0 0 0 0 0 0 0 0 0 0 0 0 0 0 0 0.1 0"/>
<feBlend mode="normal" in2="BackgroundImageFix" result="effect1_dropShadow_1079_5158"/>
<feBlend mode="normal" in="SourceGraphic" in2="effect1_dropShadow_1079_5158" result="shape"/>
</filter>
</defs>
</svg>
