<svg width="120" height="120" viewBox="0 0 120 120" fill="none" xmlns="http://www.w3.org/2000/svg">
<path d="M33 29.8583C33 24.966 36.8508 21 41.6009 21H78.3503C83.1005 21 86.9512 24.966 86.9512 29.8583V91.864C86.9512 96.3574 83.7383 100 79.7749 100H40.1764C36.213 100 33 96.3574 33 91.864V29.8583Z" fill="#6A6C71"/>
<path d="M37 30.3578C37 27.1028 39.2854 24.8535 41.6589 24.8535H45.6633C46.3503 24.8535 46.9505 25.3306 47.1231 26.014L47.2009 26.3219C47.7655 28.5574 49.6572 30.3339 52.0526 30.3339H68.6396C71.0349 30.3339 72.9266 28.5574 73.4913 26.3219L73.569 26.014C73.7416 25.3306 74.3418 24.8535 75.0288 24.8535H78.3411C80.7146 24.8535 83 27.1028 83 30.3578V90.4859C83 93.612 80.4811 96.1462 77.3738 96.1462H41.6589C39.2854 96.1462 37 93.8969 37 90.6419V30.3578Z" fill="#F8F8FF"/>
<path fill-rule="evenodd" clip-rule="evenodd" d="M60 36C61.4949 36 62.7161 37.0847 62.7959 38.4503L62.8 38.5926V40.0741H63.2C63.6418 40.0741 64 40.4057 64 40.8148V45.2593C64 45.6684 63.6418 46 63.2 46H56.8C56.3582 46 56 45.6684 56 45.2593V40.8148C56 40.4057 56.3582 40.0741 56.8 40.0741H57.2V38.5926C57.2 37.2085 58.3714 36.0777 59.8464 36.0038L60 36ZM58.4 38.5926V40.0741H61.6V38.5926C61.6 37.7744 60.8836 37.1111 60 37.1111C59.1163 37.1111 58.4 37.7744 58.4 38.5926Z" fill="#464C5D"/>
<path d="M78.2806 57.6096C78.2806 60.2699 76.124 62.4266 73.4636 62.4266C70.8032 62.4266 68.6465 60.2699 68.6465 57.6096C68.6465 54.9492 70.8032 52.7925 73.4636 52.7925C76.124 52.7925 78.2806 54.9492 78.2806 57.6096Z" fill="#C8C9DC"/>
<path d="M78.2806 71.0973C78.2806 73.7577 76.124 75.9144 73.4636 75.9144C70.8032 75.9144 68.6465 73.7577 68.6465 71.0973C68.6465 68.4369 70.8032 66.2803 73.4636 66.2803C76.124 66.2803 78.2806 68.4369 78.2806 71.0973Z" fill="#C8C9DC"/>
<path d="M78.2806 84.5851C78.2806 87.2455 76.124 89.4022 73.4636 89.4022C70.8032 89.4022 68.6465 87.2455 68.6465 84.5851C68.6465 81.9247 70.8032 79.7681 73.4636 79.7681C76.124 79.7681 78.2806 81.9247 78.2806 84.5851Z" fill="#C8C9DC"/>
<path d="M64.7923 57.6096C64.7923 60.2699 62.6357 62.4266 59.9753 62.4266C57.3149 62.4266 55.1582 60.2699 55.1582 57.6096C55.1582 54.9492 57.3149 52.7925 59.9753 52.7925C62.6357 52.7925 64.7923 54.9492 64.7923 57.6096Z" fill="#C8C9DC"/>
<path d="M64.7923 71.0973C64.7923 73.7577 62.6357 75.9144 59.9753 75.9144C57.3149 75.9144 55.1582 73.7577 55.1582 71.0973C55.1582 68.4369 57.3149 66.2803 59.9753 66.2803C62.6357 66.2803 64.7923 68.4369 64.7923 71.0973Z" fill="#C8C9DC"/>
<path d="M64.7923 84.5851C64.7923 87.2455 62.6357 89.4022 59.9753 89.4022C57.3149 89.4022 55.1582 87.2455 55.1582 84.5851C55.1582 81.9247 57.3149 79.7681 59.9753 79.7681C62.6357 79.7681 64.7923 81.9247 64.7923 84.5851Z" fill="#C8C9DC"/>
<path d="M51.305 57.6096C51.305 60.2699 49.1484 62.4266 46.488 62.4266C43.8276 62.4266 41.6709 60.2699 41.6709 57.6096C41.6709 54.9492 43.8276 52.7925 46.488 52.7925C49.1484 52.7925 51.305 54.9492 51.305 57.6096Z" fill="#C8C9DC"/>
<path d="M51.305 71.0973C51.305 73.7577 49.1484 75.9144 46.488 75.9144C43.8276 75.9144 41.6709 73.7577 41.6709 71.0973C41.6709 68.4369 43.8276 66.2803 46.488 66.2803C49.1484 66.2803 51.305 68.4369 51.305 71.0973Z" fill="#C8C9DC"/>
<path d="M51.305 84.5851C51.305 87.2455 49.1484 89.4022 46.488 89.4022C43.8276 89.4022 41.6709 87.2455 41.6709 84.5851C41.6709 81.9247 43.8276 79.7681 46.488 79.7681C49.1484 79.7681 51.305 81.9247 51.305 84.5851Z" fill="#C8C9DC"/>
</svg>
