<svg width="124" height="124" viewBox="0 0 124 124" fill="none" xmlns="http://www.w3.org/2000/svg">
<g filter="url(#filter0_d_1079_5042)">
<path d="M72.0075 32.7778H65.179C64.494 32.7778 63.8566 33.1284 63.4899 33.7069L51.597 52.4648C51.394 52.7851 51.2861 53.1565 51.2861 53.5357V86C51.2861 87.1046 52.1816 88 53.2861 88H81.6491C82.5932 88 83.4086 87.3399 83.6053 86.4165L90.216 55.3717C90.4809 54.1274 89.5321 52.9552 88.2598 52.9552H71.0753C69.7226 52.9552 68.76 51.6403 69.1688 50.3508L73.9139 35.3822C74.3227 34.0927 73.3602 32.7778 72.0075 32.7778Z" fill="#FFCD3E"/>
<path d="M31 56.1904C31 55.0859 31.8954 54.1904 33 54.1904H44.7778C45.8823 54.1904 46.7778 55.0859 46.7778 56.1904V85.9999C46.7778 87.1045 45.8823 87.9999 44.7778 87.9999H33C31.8954 87.9999 31 87.1045 31 85.9999V56.1904Z" fill="#FD8039"/>
<g opacity="0.3">
<path d="M31 56.1904C31 55.0859 31.8954 54.1904 33 54.1904H44.7778C45.8823 54.1904 46.7778 55.0859 46.7778 56.1904V62L31 79.5L31 56.1904Z" fill="white"/>
<path d="M65.1785 32.7778H72.007C73.3597 32.7778 74.3222 34.0927 73.9135 35.3822L69.1683 50.3508C68.7595 51.6403 69.7221 52.9552 71.0748 52.9552L51.2856 76.5V53.5357C51.2856 53.1565 51.3935 52.7851 51.5965 52.4648L63.4894 33.7069C63.8562 33.1284 64.4935 32.7778 65.1785 32.7778Z" fill="white"/>
</g>
<path d="M92.4938 21.2611L94.5475 27.0879L99.1928 31.1611L93.366 33.2147L89.2929 37.86L87.2392 32.0332L82.5939 27.9601L88.4207 25.9064L92.4938 21.2611Z" fill="#FFCD3E"/>
<path d="M70.452 17.5103L72.8566 20.8817L76.6047 22.6425L73.2333 25.0471L71.4725 28.7951L69.0679 25.4237L65.3198 23.6629L68.6912 21.2584L70.452 17.5103Z" fill="#FFCD3E"/>
</g>
<defs>
<filter id="filter0_d_1079_5042" x="7" y="5.51025" width="116.192" height="118.49" filterUnits="userSpaceOnUse" color-interpolation-filters="sRGB">
<feFlood flood-opacity="0" result="BackgroundImageFix"/>
<feColorMatrix in="SourceAlpha" type="matrix" values="0 0 0 0 0 0 0 0 0 0 0 0 0 0 0 0 0 0 127 0" result="hardAlpha"/>
<feOffset dy="12"/>
<feGaussianBlur stdDeviation="12"/>
<feColorMatrix type="matrix" values="0 0 0 0 0 0 0 0 0 0 0 0 0 0 0 0 0 0 0.1 0"/>
<feBlend mode="normal" in2="BackgroundImageFix" result="effect1_dropShadow_1079_5042"/>
<feBlend mode="normal" in="SourceGraphic" in2="effect1_dropShadow_1079_5042" result="shape"/>
</filter>
</defs>
</svg>
