<svg width="119" height="136" viewBox="0 0 119 136" fill="none" xmlns="http://www.w3.org/2000/svg">
<g filter="url(#filter0_d_1079_5090)">
<path fill-rule="evenodd" clip-rule="evenodd" d="M25 38.6038C25 34.7758 28.0027 31.6644 31.8015 31.1931C32.831 31.0654 33.804 30.9167 34.5727 30.747C40.3788 29.466 49.2419 23.7456 54.4968 20.0809C57.1091 18.2592 60.6007 18.218 63.2456 19.992C68.7697 23.6971 78.2186 29.6045 84.0319 30.8548C84.5653 30.9695 85.2005 31.0735 85.8811 31.1668C89.6737 31.6868 92.68 34.776 92.68 38.604C92.68 45.5009 92.68 56.4865 92.68 66.1348C92.68 78.5267 70.9431 93.2582 62.3119 98.6192C60.169 99.9502 57.511 99.9502 55.3681 98.6192C46.7369 93.2582 25 78.5267 25 66.1348C25 56.4864 25 45.5007 25 38.6038Z" fill="#A7E0B7"/>
<path fill-rule="evenodd" clip-rule="evenodd" d="M31.2334 39.4417C31.2334 37.9112 32.4299 36.6519 33.955 36.5234C35.6336 36.382 37.7128 36.1628 39.0427 35.8658C44.5358 34.6393 53.3829 28.4837 57.1032 25.7625C58.1413 25.0032 59.5531 24.9887 60.6063 25.7268C64.5025 28.4569 73.9202 34.7641 79.391 35.9548C80.5392 36.2046 82.2664 36.393 83.7244 36.5199C85.2492 36.6526 86.446 37.9113 86.446 39.4418C86.446 44.4703 86.446 55.5634 86.446 65.0804C86.446 76.1039 65.8563 89.3701 60.2401 92.7837C59.3688 93.3132 58.3106 93.3132 57.4393 92.7837C51.8232 89.3701 31.2334 76.1039 31.2334 65.0804C31.2334 55.5633 31.2334 44.4701 31.2334 39.4417Z" fill="#30B655"/>
<mask id="mask0_1079_5090" style="mask-type:alpha" maskUnits="userSpaceOnUse" x="31" y="25" width="56" height="69">
<path fill-rule="evenodd" clip-rule="evenodd" d="M31.2334 39.4417C31.2334 37.9112 32.4299 36.6519 33.955 36.5234C35.6336 36.382 37.7128 36.1628 39.0427 35.8658C44.5358 34.6393 53.3829 28.4837 57.1032 25.7625C58.1413 25.0032 59.5531 24.9887 60.6063 25.7268C64.5025 28.4569 73.9202 34.7641 79.391 35.9548C80.5392 36.2046 82.2664 36.393 83.7244 36.5199C85.2492 36.6526 86.446 37.9113 86.446 39.4418C86.446 44.4703 86.446 55.5634 86.446 65.0804C86.446 76.1039 65.8563 89.3701 60.2401 92.7837C59.3688 93.3132 58.3106 93.3132 57.4393 92.7837C51.8232 89.3701 31.2334 76.1039 31.2334 65.0804C31.2334 55.5633 31.2334 44.4701 31.2334 39.4417Z" fill="white"/>
</mask>
<g mask="url(#mask0_1079_5090)">
<g opacity="0.3">
<path fill-rule="evenodd" clip-rule="evenodd" d="M58.8397 8.00781V110.297L5.46387 62.9038L8.66849 25.8441L58.8397 8.00781Z" fill="#33A854" style="mix-blend-mode:multiply"/>
</g>
<path fill-rule="evenodd" clip-rule="evenodd" d="M42.8102 61.6841C44.7774 61.6841 46.3723 60.0795 46.3723 58.1001C46.3723 56.1207 44.7774 54.5161 42.8102 54.5161C40.8429 54.5161 39.248 56.1207 39.248 58.1001C39.248 60.0795 40.8429 61.6841 42.8102 61.6841Z" fill="white"/>
<path fill-rule="evenodd" clip-rule="evenodd" d="M58.8394 61.6841C60.8067 61.6841 62.4016 60.0795 62.4016 58.1001C62.4016 56.1207 60.8067 54.5161 58.8394 54.5161C56.8722 54.5161 55.2773 56.1207 55.2773 58.1001C55.2773 60.0795 56.8722 61.6841 58.8394 61.6841Z" fill="white"/>
<path fill-rule="evenodd" clip-rule="evenodd" d="M74.8687 61.6841C76.836 61.6841 78.4309 60.0795 78.4309 58.1001C78.4309 56.1207 76.836 54.5161 74.8687 54.5161C72.9014 54.5161 71.3066 56.1207 71.3066 58.1001C71.3066 60.0795 72.9014 61.6841 74.8687 61.6841Z" fill="white"/>
</g>
</g>
<defs>
<filter id="filter0_d_1079_5090" x="1" y="6.6875" width="115.68" height="128.93" filterUnits="userSpaceOnUse" color-interpolation-filters="sRGB">
<feFlood flood-opacity="0" result="BackgroundImageFix"/>
<feColorMatrix in="SourceAlpha" type="matrix" values="0 0 0 0 0 0 0 0 0 0 0 0 0 0 0 0 0 0 127 0" result="hardAlpha"/>
<feOffset dy="12"/>
<feGaussianBlur stdDeviation="12"/>
<feColorMatrix type="matrix" values="0 0 0 0 0 0 0 0 0 0 0 0 0 0 0 0 0 0 0.1 0"/>
<feBlend mode="normal" in2="BackgroundImageFix" result="effect1_dropShadow_1079_5090"/>
<feBlend mode="normal" in="SourceGraphic" in2="effect1_dropShadow_1079_5090" result="shape"/>
</filter>
</defs>
</svg>
