<svg width="120" height="132" viewBox="0 0 120 132" fill="none" xmlns="http://www.w3.org/2000/svg">
<g filter="url(#filter0_d_1079_5068)">
<path fill-rule="evenodd" clip-rule="evenodd" d="M78.5952 50.7934C78.5952 53.5567 80.2429 54.8257 82.4036 54.8257C83.2104 54.8257 84.0569 54.635 84.8631 54.4535C86.5765 54.0677 88.1078 53.7229 88.6887 55.3362C90.0717 59.1774 91.2758 64.1964 90.6322 69.03C89.6406 76.4757 84.548 81.3643 82.1718 83.6453C81.4261 84.3611 80.9479 84.8201 80.9479 85.0208C80.9479 85.3468 81.0708 85.7044 81.1884 86.0464C81.3938 86.6438 81.583 87.1939 81.0726 87.4465C76.9941 89.4652 67.1978 93.8329 65.7613 94.4722C65.6389 94.5267 65.5218 94.5716 65.394 94.6119C64.5717 94.8713 61.263 95.875 58.987 95.9781C50.1926 96.3763 41.5048 91.2624 36.2851 87.4287C35.7509 87.0364 36.0792 86.7261 36.4969 86.3314C36.8559 85.9921 37.2809 85.5905 37.2809 85.0208C37.2809 84.7231 36.69 83.8907 35.8158 82.659C33.5709 79.4961 29.4572 73.7002 28.6796 67.5639C28.3016 64.58 29.0546 61.3748 30.1932 58.4688C31.3474 55.5232 34.6529 56.8063 37.8031 58.0292C38.4393 58.2762 39.0692 58.5207 39.6738 58.7275C40.1767 58.8994 40.744 58.9345 41.3838 58.7925C45.9196 57.7854 45.5821 53.3954 45.3683 50.6138C45.329 50.1031 45.2939 49.6466 45.2939 49.2752C45.2939 44.2985 46.9315 39.9345 48.4108 37.0077C49.1716 35.5024 51.0531 34.7532 52.8382 34.0425C53.6021 33.7383 54.3483 33.4412 54.9815 33.0949C55.3239 32.9076 55.6857 32.6746 56.0663 32.3873C57.6924 31.1603 57.9753 27.2806 57.8233 23.54C57.6871 20.1878 61.1629 17.7655 63.9239 19.6715C68.699 22.9677 74.5161 27.8552 76.5176 33.1613C79.4336 40.8915 78.9903 45.8492 78.7154 48.9235C78.6506 49.6473 78.5952 50.2668 78.5952 50.7934ZM37.7468 42.3568C37.731 41.1188 36.1687 40.9703 35.4889 42.0051C34.9682 42.7977 34.3006 43.457 33.6927 44.0572C33.001 44.7402 32.3867 45.3469 32.1539 45.9869C31.727 47.1606 31.6274 48.3021 31.6669 49.2635C31.7221 50.6082 33.2087 51.0673 34.1817 50.1376C35.3852 48.9875 36.7761 47.4341 37.3025 45.9869C37.6611 45.0008 37.7634 43.6656 37.7468 42.3568Z" fill="#FD5639"/>
<mask id="mask0_1079_5068" style="mask-type:alpha" maskUnits="userSpaceOnUse" x="28" y="19" width="63" height="77">
<path fill-rule="evenodd" clip-rule="evenodd" d="M82.4036 54.8257C80.2429 54.8257 78.5952 53.5567 78.5952 50.7934C78.5952 48.0302 80.1202 42.7117 76.5176 33.1613C74.5161 27.8552 68.699 22.9677 63.9239 19.6715C61.1629 17.7655 57.6871 20.1878 57.8233 23.54C57.9753 27.2806 57.6924 31.1603 56.0663 32.3873C55.6857 32.6746 55.3239 32.9076 54.9815 33.0949C52.8685 34.2506 49.4972 34.8582 48.4108 37.0077C46.9315 39.9345 45.2939 44.2985 45.2939 49.2752C45.2939 51.6695 46.7524 57.6005 41.3838 58.7925C40.744 58.9345 40.1767 58.8994 39.6738 58.7275C36.0758 57.4971 31.5805 54.9283 30.1932 58.4688C29.0546 61.3748 28.3016 64.58 28.6796 67.5639C29.76 76.0899 37.2809 83.9586 37.2809 85.0208C37.2809 86.2532 35.2918 86.6992 36.2851 87.4287C41.5048 91.2624 50.1926 96.3763 58.987 95.9781C61.263 95.875 64.5717 94.8713 65.394 94.6119C65.5218 94.5716 65.6389 94.5267 65.7613 94.4722C67.1978 93.8329 76.9941 89.4652 81.0726 87.4465C81.8752 87.0493 80.9479 85.9163 80.9479 85.0208C80.9479 84.1806 89.3294 78.8123 90.6322 69.03C91.2758 64.1964 90.0717 59.1774 88.6887 55.3362C87.8345 52.9638 84.9251 54.8257 82.4036 54.8257Z" fill="#FD5639"/>
</mask>
<g mask="url(#mask0_1079_5068)">
<path fill-rule="evenodd" clip-rule="evenodd" d="M55.133 96.2774C54.0456 96.1157 53.0455 95.6062 52.2573 94.8221C50.5804 93.1538 47.5425 89.7834 45.4025 85.4072C43.7035 81.9329 43.0389 78.3891 42.7853 75.8951C42.5669 73.748 43.6273 71.7581 45.2506 70.3814C48.8195 67.3546 54.9887 61.6146 56.7466 56.7627C58.4163 52.1543 66.6856 51.5194 68.6353 56.011C70.2161 59.6528 71.9639 62.9183 73.7869 65.0344C76.3334 67.9904 81.2202 70.2417 80.1421 74.0263C78.1835 80.9021 72.4334 89.284 69.7826 92.9159C68.9059 94.117 67.6606 94.9638 66.2398 95.3256C64.1229 95.8646 60.957 96.5801 59.0666 96.5801C57.5465 96.5801 56.149 96.4286 55.133 96.2774Z" fill="#FFA147"/>
<path fill-rule="evenodd" clip-rule="evenodd" d="M60.9443 96.1255C59.7513 96.0731 58.7265 95.2882 58.3983 94.1401C57.6195 91.4164 56.492 86.3627 57.8213 83.4676C58.8034 81.3286 60.9129 78.2459 62.7074 75.7849C64.0531 73.9393 66.7948 74.3112 67.4562 76.4975C68.1345 78.7399 68.7178 81.3809 68.5496 83.4676C68.2658 86.9893 66.7238 92.0678 66.0508 94.1559C65.8508 94.7764 65.4511 95.3178 64.8669 95.607C64.4297 95.8234 63.8827 96.0433 63.3592 96.1131C62.8312 96.1835 61.846 96.1652 60.9443 96.1255Z" fill="#FFFCF1"/>
</g>
</g>
<defs>
<filter id="filter0_d_1079_5068" x="4.58105" y="7" width="110.229" height="125" filterUnits="userSpaceOnUse" color-interpolation-filters="sRGB">
<feFlood flood-opacity="0" result="BackgroundImageFix"/>
<feColorMatrix in="SourceAlpha" type="matrix" values="0 0 0 0 0 0 0 0 0 0 0 0 0 0 0 0 0 0 127 0" result="hardAlpha"/>
<feOffset dy="12"/>
<feGaussianBlur stdDeviation="12"/>
<feColorMatrix type="matrix" values="0 0 0 0 0 0 0 0 0 0 0 0 0 0 0 0 0 0 0.1 0"/>
<feBlend mode="normal" in2="BackgroundImageFix" result="effect1_dropShadow_1079_5068"/>
<feBlend mode="normal" in="SourceGraphic" in2="effect1_dropShadow_1079_5068" result="shape"/>
</filter>
</defs>
</svg>
