<svg width="120" height="120" viewBox="0 0 120 120" fill="none" xmlns="http://www.w3.org/2000/svg">
<path d="M87.6733 60.312C90.817 59.0828 93.0438 56.0236 93.0438 52.4444C93.0438 47.7807 89.2631 44 84.5994 44C79.9356 44 76.1549 47.7807 76.1549 52.4444C76.1549 56.0237 78.3817 59.0828 81.5255 60.312C75.3955 61.576 70.6835 66.5435 70.0144 72.6765C69.9098 73.6345 70.3802 74.5052 71.3014 74.7882C73.0225 75.317 76.7624 76 84.5994 76C92.4363 76 96.1763 75.317 97.8974 74.7882C98.8186 74.5052 99.2889 73.6345 99.1844 72.6765C98.5152 66.5435 93.8033 61.576 87.6733 60.312Z" fill="#7B91FF"/>
<mask id="mask0_1079_5111" style="mask-type:alpha" maskUnits="userSpaceOnUse" x="70" y="44" width="30" height="32">
<path d="M87.6733 60.312C90.817 59.0828 93.0438 56.0236 93.0438 52.4444C93.0438 47.7807 89.2631 44 84.5994 44C79.9356 44 76.1549 47.7807 76.1549 52.4444C76.1549 56.0237 78.3817 59.0828 81.5255 60.312C75.3955 61.576 70.6835 66.5435 70.0144 72.6765C69.9098 73.6345 70.3802 74.5052 71.3014 74.7882C73.0225 75.317 76.7624 76 84.5994 76C92.4363 76 96.1763 75.317 97.8974 74.7882C98.8186 74.5052 99.2889 73.6345 99.1844 72.6765C98.5152 66.5435 93.8033 61.576 87.6733 60.312Z" fill="#FFC419"/>
</mask>
<g mask="url(#mask0_1079_5111)">
<path d="M84.5582 60.3253C91.0738 56.3233 91.3706 45.6515 85.8535 41.7036L97.7745 49.6612C97.6755 53.2184 104.868 77.0639 99.7293 79.2013C97.344 80.1935 93.0478 79.1821 86.8715 78.3069C92.8821 75.1609 88.9302 61.5204 84.5582 60.3253Z" fill="#6D6D6D" fill-opacity="0.25"/>
</g>
<path d="M38.6733 60.312C41.817 59.0828 44.0438 56.0236 44.0438 52.4444C44.0438 47.7807 40.2631 44 35.5994 44C30.9356 44 27.1549 47.7807 27.1549 52.4444C27.1549 56.0237 29.3817 59.0828 32.5255 60.312C26.3955 61.576 21.6835 66.5435 21.0144 72.6765C20.9098 73.6345 21.3802 74.5052 22.3014 74.7882C24.0225 75.317 27.7624 76 35.5994 76C43.4363 76 47.1763 75.317 48.8974 74.7882C49.8186 74.5052 50.2889 73.6345 50.1844 72.6765C49.5152 66.5435 44.8033 61.576 38.6733 60.312Z" fill="#7B91FF"/>
<mask id="mask1_1079_5111" style="mask-type:alpha" maskUnits="userSpaceOnUse" x="21" y="44" width="30" height="32">
<path d="M38.6733 60.312C41.817 59.0828 44.0438 56.0236 44.0438 52.4444C44.0438 47.7807 40.2631 44 35.5994 44C30.9356 44 27.1549 47.7807 27.1549 52.4444C27.1549 56.0237 29.3817 59.0828 32.5255 60.312C26.3955 61.576 21.6835 66.5435 21.0144 72.6765C20.9098 73.6345 21.3802 74.5052 22.3014 74.7882C24.0225 75.317 27.7624 76 35.5994 76C43.4363 76 47.1763 75.317 48.8974 74.7882C49.8186 74.5052 50.2889 73.6345 50.1844 72.6765C49.5152 66.5435 44.8033 61.576 38.6733 60.312Z" fill="#FFC419"/>
</mask>
<g mask="url(#mask1_1079_5111)">
<path d="M35.5582 60.3253C42.0738 56.3233 42.3706 45.6515 36.8535 41.7036L48.7745 49.6612C48.6755 53.2184 55.8678 77.0639 50.7293 79.2013C48.344 80.1935 44.0478 79.1821 37.8715 78.3069C43.8821 75.1609 39.9302 61.5204 35.5582 60.3253Z" fill="#6D6D6D" fill-opacity="0.25"/>
</g>
<path d="M65.2638 60.5265C70.6471 58.4522 74.4603 53.2899 74.4603 47.25C74.4603 39.3799 67.9862 33 60 33C52.0138 33 45.5397 39.3799 45.5397 47.25C45.5397 53.2899 49.3529 58.4522 54.7363 60.5265C44.2392 62.6596 36.1705 71.0422 35.0246 81.3916C34.8456 83.0083 35.651 84.4774 37.2285 84.9551C40.1757 85.8474 46.58 87 60 87C73.4201 87 79.8243 85.8474 82.7715 84.9551C84.349 84.4774 85.1544 83.0083 84.9754 81.3916C83.8295 71.0422 75.7608 62.6596 65.2638 60.5265Z" fill="#7B91FF"/>
<mask id="mask2_1079_5111" style="mask-type:alpha" maskUnits="userSpaceOnUse" x="35" y="33" width="50" height="54">
<path d="M65.2638 60.5265C70.6471 58.4522 74.4603 53.2899 74.4603 47.25C74.4603 39.3799 67.9862 33 60 33C52.0138 33 45.5397 39.3799 45.5397 47.25C45.5397 53.2899 49.3529 58.4522 54.7363 60.5265C44.2392 62.6596 36.1705 71.0422 35.0246 81.3916C34.8456 83.0083 35.651 84.4774 37.2285 84.9551C40.1757 85.8474 46.58 87 60 87C73.4201 87 79.8243 85.8474 82.7715 84.9551C84.349 84.4774 85.1544 83.0083 84.9754 81.3916C83.8295 71.0422 75.7608 62.6596 65.2638 60.5265Z" fill="#7487E7"/>
</mask>
<g mask="url(#mask2_1079_5111)">
<path d="M59.9303 60.5491C71.0877 53.7958 71.596 35.7871 62.1484 29.125L82.5619 42.5533C82.3925 48.5562 94.7085 88.7955 85.9093 92.4024C81.8248 94.0768 74.468 92.3699 63.8916 90.8931C74.1841 85.5842 67.417 62.5659 59.9303 60.5491Z" fill="#404040" fill-opacity="0.13"/>
</g>
</svg>
